<svg width="46" height="48" viewBox="0 0 46 48" fill="none" xmlns="http://www.w3.org/2000/svg">
<g clip-path="url(#clip0)">
<path d="M45.1024 0L16.1024 6V35C14.4552 33.5754 12.3561 32.7813 10.1784 32.759C9.07784 32.7606 7.98502 32.9427 6.9434 33.298C2.0974 34.941 -0.900608 39.937 0.243392 43.34C1.13239 45.976 4.24339 47.969 7.85939 47.969C8.95995 47.9675 10.0528 47.7854 11.0944 47.43C15.3044 46.002 18.1164 42.045 18.0304 38.799L18.1004 38.999V17L43.1004 12V29C41.4783 27.567 39.3975 26.7609 37.2334 26.727C36.1329 26.7285 35.04 26.9106 33.9984 27.266C29.1524 28.909 26.1544 33.905 27.2984 37.308C28.1864 39.944 31.2984 41.937 34.9144 41.937C36.015 41.9354 37.1078 41.7533 38.1494 41.398C42.2944 39.992 45.0774 36.136 45.0814 32.92L45.1024 33V0ZM10.4544 45.524C9.6196 45.8093 8.74362 45.9556 7.8614 45.957C5.2284 45.957 2.77039 44.557 2.14439 42.695C1.37539 40.413 3.7354 36.508 7.5854 35.202C8.42021 34.9168 9.29618 34.7704 10.1784 34.769C12.8104 34.769 15.2684 36.169 15.8954 38.031C16.6644 40.313 14.3024 44.218 10.4544 45.524ZM18.1024 15L18.0394 7.914L43.0904 2.47101L43.1024 10L18.1024 15ZM37.5114 39.493C36.6766 39.7783 35.8006 39.9247 34.9184 39.926C32.2854 39.926 29.8274 38.526 29.2014 36.664C28.4324 34.382 30.7924 30.476 34.6424 29.171C35.4772 28.8858 36.3532 28.7394 37.2354 28.738C39.8674 28.738 42.3254 30.138 42.9524 32C43.0396 32.272 43.0861 32.5554 43.0904 32.841V32.92H43.0964C43.1104 35.214 40.8824 38.349 37.5114 39.493Z" fill="#C5FFFF"/>
</g>
<defs>
<clipPath id="clip0">
<rect width="45.101" height="47.968" fill="white"/>
</clipPath>
</defs>
</svg>
