<svg width="46" height="51" viewBox="0 0 46 51" fill="none" xmlns="http://www.w3.org/2000/svg">
<path d="M45.1024 3L16.1024 9V38C14.4552 36.5754 12.3561 35.7813 10.1784 35.759C9.07784 35.7606 7.98502 35.9427 6.9434 36.298C2.0974 37.941 -0.900608 42.937 0.243392 46.34C1.13239 48.976 4.24339 50.969 7.85939 50.969C8.95995 50.9675 10.0528 50.7854 11.0944 50.43C15.3044 49.002 18.1164 45.045 18.0304 41.799L18.1004 41.999V20L43.1004 15V32C41.4783 30.567 39.3975 29.7609 37.2334 29.727C36.1329 29.7285 35.04 29.9106 33.9984 30.266C29.1524 31.909 26.1544 36.905 27.2984 40.308C28.1864 42.944 31.2984 44.937 34.9144 44.937C36.015 44.9354 37.1078 44.7533 38.1494 44.398C42.2944 42.992 45.0774 39.136 45.0814 35.92L45.1024 36V3ZM10.4544 48.524C9.6196 48.8093 8.74362 48.9556 7.8614 48.957C5.2284 48.957 2.77039 47.557 2.14439 45.695C1.37539 43.413 3.7354 39.508 7.5854 38.202C8.42021 37.9168 9.29618 37.7704 10.1784 37.769C12.8104 37.769 15.2684 39.169 15.8954 41.031C16.6644 43.313 14.3024 47.218 10.4544 48.524ZM18.1024 18L18.0394 10.914L43.0904 5.47101L43.1024 13L18.1024 18ZM37.5114 42.493C36.6766 42.7783 35.8006 42.9247 34.9184 42.926C32.2854 42.926 29.8274 41.526 29.2014 39.664C28.4324 37.382 30.7924 33.476 34.6424 32.171C35.4772 31.8858 36.3532 31.7394 37.2354 31.738C39.8674 31.738 42.3254 33.138 42.9524 35C43.0396 35.272 43.0861 35.5554 43.0904 35.841V35.92H43.0964C43.1104 38.214 40.8824 41.349 37.5114 42.493Z" fill="#C5FFFF"/>
<path d="M1.47 14.064L0.714 13.308L5.306 8.688L0.714 4.068L1.47 3.312L6.062 7.932L10.626 3.312L11.382 4.068L6.79 8.688L11.382 13.308L10.626 14.064L6.062 9.472L1.47 14.064Z" fill="#C5FFFF"/>
</svg>
