<svg width="48" height="48" viewBox="0 0 48 48" fill="none" xmlns="http://www.w3.org/2000/svg">
<g clip-path="url(#clip0)">
<path fill-rule="evenodd" clip-rule="evenodd" d="M28.1 2.3L35.7 5.2L36.2 11.9L42.8 12.5L45.7 20.1L40.6 25.5L44.7 31.7L40.5 38.6L33 37.9L30.6 44.9L22.5 45.9L18.5 39.6L11.5 42L5.8 36.2L8.3 29.2L2.1 25.2L3.1 17.1L10.1 14.8L9.5 7.4L16.5 3.2L22.7 7.3L28.1 2.3ZM27.7 0L22.5 4.9L16.6 1L7.4 6.4L8 13.5L1.3 15.7L0 26.2L6 30L3.6 36.7L11.1 44.3L17.8 42L21.6 48L32.2 46.7L34.5 40L41.6 40.7L47.1 31.6L43.2 25.7L48.1 20.6L44.3 10.6L38 10.1L37.5 3.9L27.7 0ZM24 17C27.9 17 31 20.1 31 24C31 27.9 27.9 31 24 31C20.1 31 17 27.9 17 24C17 23.1 17.2 22.3 17.5 21.5C18.5 18.8 21.1 17 24 17ZM24 15C19 15 15 19 15 24C15 29 19 33 24 33C29 33 33 29 33 24C33 20.3 30.7 17 27.3 15.6C26.2 15.2 25.1 15 24 15Z" fill="#C5FFFF"/>
</g>
<defs>
<clipPath id="clip0">
<rect width="48" height="48" fill="white"/>
</clipPath>
</defs>
</svg>
