<svg width="48" height="48" viewBox="0 0 48 48" fill="none" xmlns="http://www.w3.org/2000/svg">
<path d="M6.64453 8.60449H2.46777V13H1.15527V3.04688H7.32129V4.12695H2.46777V7.53125H6.64453V8.60449ZM12.1406 6.86133L14.5264 3.04688H16.0713L12.9268 7.98242L16.1465 13H14.5879L12.1406 9.11719L9.67969 13H8.12793L11.3545 7.98242L8.20312 3.04688H9.74121L12.1406 6.86133Z" fill="#C5FFFF"/>
<path d="M0 18.7343V35.7273H10.5606L28.8015 48V6.46155L10.5606 18.7343H0ZM26.8814 10.2378V44.2238L11.5206 33.8392H1.91435V20.6224H11.5206L26.8814 10.2378ZM41.0441 10.7098L39.6885 12.0456C43.783 16.0793 46.0825 21.5457 46.0825 27.245C46.0825 32.9442 43.783 38.4105 39.6885 42.4442L41.0441 43.7791C45.4983 39.3911 48 33.4445 48 27.2445C48 21.0445 45.4983 15.0979 41.0441 10.7098V10.7098ZM32.6859 17.0576C34.1779 18.3189 35.3753 19.8821 36.1961 21.6404C37.0169 23.3987 37.4419 25.3107 37.4419 27.2454C37.4419 29.1802 37.0169 31.0921 36.1961 32.8504C35.3753 34.6087 34.1779 36.172 32.6859 37.4332L34.0415 38.7681C35.7127 37.3315 37.0522 35.5601 37.9699 33.5726C38.8876 31.5852 39.3624 29.4277 39.3624 27.245C39.3624 25.0622 38.8876 22.9047 37.9699 20.9172C37.0522 18.9298 35.7127 17.1584 34.0415 15.7218L32.6859 17.0576Z" fill="#C5FFFF"/>
</svg>
